<svg width="1440" height="544" viewBox="0 0 1440 544" fill="none" xmlns="http://www.w3.org/2000/svg">
<g clip-path="url(#clip0_17517_1083)" filter="url(#filter0_f_17517_1083)">
<path opacity="0.15" d="M1310.19 153.88C1343.7 190.97 1370.88 255.451 1320.8 300.973C1315.63 305.666 1267.18 348.248 1194.3 342.96C1105.54 336.52 1087.34 266.812 989.381 248.716C883.298 229.119 821.037 295.425 769.231 275.056C707.971 250.97 700.451 121.071 811.331 65.3957C944.906 -1.67449 1220.08 54.1512 1310.19 153.88Z" fill="#EBC136"/>
<path opacity="0.15" d="M538.771 448.324C569.833 429.254 603.681 390.833 582.66 351.97C580.493 347.963 559.788 311.339 511.205 302.519C452.031 291.775 422.688 335.205 354.618 330.681C280.901 325.781 257.215 270.986 218.498 275.799C172.716 281.491 135.153 366.895 193.04 422.834C262.774 490.223 455.249 499.602 538.771 448.324Z" fill="#EBC136"/>
<path opacity="0.15" d="M697.969 394.974C682.581 373.883 666.858 333.305 680.341 295.943C681.731 292.091 694.913 256.941 721.272 251.382C753.377 244.61 766.407 289.883 802.875 289.907C842.367 289.933 858.212 236.858 878.516 244.239C902.525 252.967 917.438 340.655 883.339 392.592C842.259 455.159 739.347 451.686 697.969 394.974Z" fill="#EBC136"/>
<path opacity="0.15" d="M554.467 203.665C571.284 192.986 589.622 171.495 578.276 149.799C577.107 147.562 565.931 127.116 539.654 122.226C507.649 116.269 491.745 140.556 454.923 138.081C415.047 135.4 402.27 104.805 381.321 107.524C356.55 110.739 336.171 158.482 367.448 189.69C405.128 227.286 509.247 232.377 554.467 203.665Z" fill="#EBC136"/>
<path opacity="0.15" d="M1433.62 248.365C1451.76 232.046 1471.7 199.494 1459.95 167.192C1458.74 163.861 1447.14 133.43 1419.17 126.595C1385.09 118.269 1367.7 154.965 1328.42 151.946C1285.89 148.678 1272.75 103.066 1250.34 107.534C1223.83 112.818 1201.28 184.751 1234.15 230.934C1273.76 286.569 1384.86 292.244 1433.62 248.365Z" fill="#FDCC55"/>
<path opacity="0.15" d="M1445.61 377.852C1459.71 388.804 1475.15 410.725 1465.84 432.622C1464.88 434.88 1455.7 455.511 1433.82 460.261C1407.16 466.047 1393.73 441.312 1363.03 443.533C1329.79 445.938 1319.35 476.841 1301.86 473.922C1281.17 470.471 1263.84 421.932 1289.71 390.552C1320.88 352.749 1407.69 348.404 1445.61 377.852Z" fill="#FDCC55"/>
<path opacity="0.15" d="M213.669 78.0383C226.238 99.7629 238.664 141.202 226.427 178.638C225.165 182.498 213.231 217.705 190.787 222.649C163.449 228.671 153.407 182.552 122.524 181.589C89.0788 180.546 74.4971 233.812 57.4638 225.825C37.3222 216.381 26.6148 127.322 56.6316 75.6773C92.7922 13.462 179.871 19.623 213.669 78.0383Z" fill="#FDCC55"/>
<path opacity="0.15" d="M861.476 511.669C835.59 492.449 810.431 453.902 836.895 415.251C839.624 411.266 865.404 374.846 912.569 366.342C970.017 355.985 990.079 399.502 1054.81 395.405C1124.91 390.968 1156.63 336.435 1192.17 341.475C1234.2 347.435 1254.73 432.888 1190.68 488.354C1113.52 555.172 931.081 563.35 861.476 511.669Z" fill="#FDCC55"/>
<path opacity="0.15" d="M1384.81 168.342C1406.45 149.316 1429.14 112.708 1411.86 78.9903C1410.07 75.514 1393.14 43.7923 1357.32 38.7659C1313.69 32.6437 1294.54 73.4906 1244.76 73.499C1190.84 73.508 1170.81 25.6112 1142.87 32.2639C1109.83 40.1305 1086.83 119.248 1131.82 166.124C1186.02 222.596 1326.62 219.499 1384.81 168.342Z" fill="#FDCC55"/>
<path opacity="0.15" d="M816.472 72.9302C857.02 83.592 900.079 103.391 869.337 120.184C866.167 121.915 835.993 137.688 770.11 138.935C689.863 140.455 653.181 118.596 561.37 116.711C461.943 114.668 426.601 138.694 374.852 134.196C313.66 128.877 268.602 87.0717 350 64.5173C448.058 37.3464 707.444 44.2618 816.472 72.9302Z" fill="#D48CB3"/>
<path opacity="0.15" d="M182.075 421.017C201.161 398.865 221.286 356.532 206.39 318.129C204.854 314.169 190.246 278.05 158.916 272.836C120.756 266.486 103.697 313.625 60.0992 314.4C12.8852 315.24 -4.31972 260.618 -28.8349 268.677C-57.8235 278.207 -78.5218 369.296 -39.4555 422.364C7.60687 486.295 130.752 480.582 182.075 421.017Z" fill="#FDCC55"/>
</g>
<defs>
<filter id="filter0_f_17517_1083" x="-160" y="-160" width="1760" height="864" filterUnits="userSpaceOnUse" color-interpolation-filters="sRGB">
<feFlood flood-opacity="0" result="BackgroundImageFix"/>
<feBlend mode="normal" in="SourceGraphic" in2="BackgroundImageFix" result="shape"/>
<feGaussianBlur stdDeviation="80" result="effect1_foregroundBlur_17517_1083"/>
</filter>
<clipPath id="clip0_17517_1083">
<rect width="1440" height="544" fill="white"/>
</clipPath>
</defs>
</svg>
